<?xml version="1.0" encoding="UTF-8" standalone="no"?>
<svg viewBox="0 0 350 350" version="1.1" xmlns="http://www.w3.org/2000/svg" xmlns:xlink="http://www.w3.org/1999/xlink">
    <g id="Page-1" stroke="none" stroke-width="1" fill="none" fill-rule="evenodd">
        <g id="Group" transform="translate(-1.000000, 0.000000)" stroke="#FFFFFF">
            <path d="M333.497821,350.501088 L333.497821,0.501088302" id="path1872" opacity="0.25" vector-effect="non-scaling-stroke"></path>
            <path d="M315.997821,350.501088 L315.997821,0.501088302" id="path1872" opacity="0.25" vector-effect="non-scaling-stroke"></path>
            <path d="M298.497821,350.501088 L298.497821,0.501088302" id="path1872" opacity="0.25" vector-effect="non-scaling-stroke"></path>
            <path d="M280.997821,350.501088 L280.997821,0.501088302" id="path1872" opacity="0.25" vector-effect="non-scaling-stroke"></path>
            <path d="M245.997821,350.501088 L245.997821,0.501088302" id="path1872" opacity="0.25" vector-effect="non-scaling-stroke"></path>
            <path d="M228.497821,350.501088 L228.497821,0.501088302" id="path1872" opacity="0.25" vector-effect="non-scaling-stroke"></path>
            <path d="M210.997821,350.501088 L210.997821,0.501088302" id="path1872" opacity="0.25" vector-effect="non-scaling-stroke"></path>
            <path d="M193.497821,350.501088 L193.497821,0.501088302" id="path1872" opacity="0.25" vector-effect="non-scaling-stroke"></path>
            <path d="M159.372821,350.501088 L159.372821,0.501088302" id="path1872" opacity="0.25" vector-effect="non-scaling-stroke"></path>
            <path d="M141.872821,350.501088 L141.872821,0.501088302" id="path1872" opacity="0.25" vector-effect="non-scaling-stroke"></path>
            <path d="M124.372821,350.501088 L124.372821,0.501088302" id="path1872" opacity="0.25" vector-effect="non-scaling-stroke"></path>
            <path d="M106.872821,350.501088 L106.872821,0.501088302" id="path1872" opacity="0.25" vector-effect="non-scaling-stroke"></path>
            <path d="M71.8728207,350.501088 L71.8728207,0.501088302" id="path1872" opacity="0.25" vector-effect="non-scaling-stroke"></path>
            <path d="M54.3728207,350.501088 L54.3728207,0.501088302" id="path1872" opacity="0.25" vector-effect="non-scaling-stroke"></path>
            <path d="M36.8728207,350.501088 L36.8728207,0.501088302" id="path1872" opacity="0.25" vector-effect="non-scaling-stroke"></path>
            <path d="M19.3728207,350.501088 L19.3728207,0.501088302" id="path1872" opacity="0.25" vector-effect="non-scaling-stroke"></path>
            <path d="M351.001088,19.0021793 L1.0010883,19.0021793" id="path1872" opacity="0.25" vector-effect="non-scaling-stroke"></path>
            <path d="M351.001088,36.5021793 L1.0010883,36.5021793" id="path1872" opacity="0.25" vector-effect="non-scaling-stroke"></path>
            <path d="M351.001088,54.0021793 L1.0010883,54.0021793" id="path1872" opacity="0.25" vector-effect="non-scaling-stroke"></path>
            <path d="M351.001088,71.5021793 L1.0010883,71.5021793" id="path1872" opacity="0.25" vector-effect="non-scaling-stroke"></path>
            <path d="M351.001088,106.502179 L1.0010883,106.502179" id="path1872" opacity="0.25" vector-effect="non-scaling-stroke"></path>
            <path d="M351.001088,124.002179 L1.0010883,124.002179" id="path1872" opacity="0.25" vector-effect="non-scaling-stroke"></path>
            <path d="M351.001088,141.502179 L1.0010883,141.502179" id="path1872" opacity="0.25" vector-effect="non-scaling-stroke"></path>
            <path d="M351.001088,159.002179 L1.0010883,159.002179" id="path1872" opacity="0.25" vector-effect="non-scaling-stroke"></path>
            <path d="M351.001088,193.127179 L1.0010883,193.127179" id="path1872" opacity="0.25" vector-effect="non-scaling-stroke"></path>
            <path d="M351.001088,210.627179 L1.0010883,210.627179" id="path1872" opacity="0.25" vector-effect="non-scaling-stroke"></path>
            <path d="M351.001088,228.127179 L1.0010883,228.127179" id="path1872" opacity="0.25" vector-effect="non-scaling-stroke"></path>
            <path d="M351.001088,245.627179 L1.0010883,245.627179" id="path1872" opacity="0.25" vector-effect="non-scaling-stroke"></path>
            <path d="M351.001088,280.627179 L1.0010883,280.627179" id="path1872" opacity="0.25" vector-effect="non-scaling-stroke"></path>
            <path d="M351.001088,298.127179 L1.0010883,298.127179" id="path1872" opacity="0.25" vector-effect="non-scaling-stroke"></path>
            <path d="M351.001088,315.627179 L1.0010883,315.627179" id="path1872" opacity="0.25" vector-effect="non-scaling-stroke"></path>
            <path d="M351.001088,333.127179 L1.0010883,333.127179" id="path1872" opacity="0.25" vector-effect="non-scaling-stroke"></path>
            <path d="M88.0641352,1 L88.0641352,351" id="path8215" opacity="0.5" vector-effect="non-scaling-stroke"></path>
            <path d="M175.12827,1 L175.12827,351" id="path8215" opacity="0.5" vector-effect="non-scaling-stroke"></path>
            <path d="M262.192406,1 L262.192406,351" id="path8215" opacity="0.5" vector-effect="non-scaling-stroke"></path>
            <path d="M350.563591,88.0646793 L0.563591022,88.0646793" id="path8215" opacity="0.5" vector-effect="non-scaling-stroke"></path>
            <path d="M350.563591,175.564679 L0.563591022,175.564679" id="path8215" opacity="0.5" vector-effect="non-scaling-stroke"></path>
            <path d="M350.563591,263.064679 L0.563591022,263.064679" id="path8215" opacity="0.5" vector-effect="non-scaling-stroke"></path>
            <rect id="rect10078" opacity="0.75" x="0.872817955" y="1" width="350" height="350" vector-effect="non-scaling-stroke"></rect>
        </g>
    </g>
</svg>